squats_1_grf
version=1
nRows=24
nColumns=19
inDegrees=no
endheader
time	ground_force_right_vx	ground_force_right_vy	ground_force_right_vz	ground_force_right_px	ground_force_right_py	ground_force_right_pz	ground_force_right_mx	ground_force_right_my	ground_force_right_mz	ground_force_left_vx	ground_force_left_vy	ground_force_left_vz	ground_force_left_px	ground_force_left_py	ground_force_left_pz	ground_force_left_mx	ground_force_left_my	ground_force_left_mz
     21.40700000	    -18.81798234	    456.29908445	     34.12381756	     -3.44517493	      0.00729452	      2.31844527	     -0.00274838	      0.94289879	      0.00426921	    -16.11651644	    399.55159269	    -32.60836339	     -3.44400335	      0.00806936	      2.68967856	      0.00504649	     -1.51888185	      0.00263751
     21.40800000	    -18.81490167	    455.50267587	     34.17144338	     -3.44514406	      0.00729470	      2.31842443	     -0.00270115	      0.92669424	      0.00419584	    -16.04234095	    399.01948896	    -32.77489550	     -3.44403742	      0.00806930	      2.68970994	      0.00499324	     -1.50285376	      0.00260967
     21.40900000	    -18.81969224	    454.69831069	     34.21405748	     -3.44511132	      0.00729489	      2.31840470	     -0.00265459	      0.91072194	      0.00412352	    -15.97892711	    398.50634220	    -32.94400257	     -3.44407170	      0.00806925	      2.68974197	      0.00494145	     -1.48726529	      0.00258260
     21.41000000	    -18.83318268	    453.88838800	     34.25204181	     -3.44507693	      0.00729507	      2.31838595	     -0.00260886	      0.89503233	      0.00405248	    -15.92606737	    398.01235647	    -33.11564742	     -3.44410656	      0.00806919	      2.68977473	      0.00489104	     -1.47209268	      0.00255626
     21.41100000	    -18.85612452	    453.07546326	     34.28582344	     -3.44504118	      0.00729526	      2.31836804	     -0.00256409	      0.87967558	      0.00398295	    -15.88339588	    397.53762422	    -33.28976088	     -3.44414235	      0.00806913	      2.68980831	      0.00484191	     -1.45730746	      0.00253058
     21.41200000	    -18.88917280	    452.26222005	     34.31587092	     -3.44500437	      0.00729544	      2.31835080	     -0.00252045	      0.86470090	      0.00391515	    -15.85038596	    397.08212099	    -33.46624212	     -3.44417946	      0.00806906	      2.68984280	      0.00479397	     -1.44287651	      0.00250552
     21.41300000	    -18.93286747	    451.45143849	     34.34269007	     -3.44496688	      0.00729563	      2.31833406	     -0.00247805	      0.85015587	      0.00384929	    -15.82634987	    396.64569967	    -33.64495955	     -3.44421828	      0.00806900	      2.68987827	      0.00474707	     -1.42876235	      0.00248101
     21.41400000	    -18.98761588	    450.64596067	     34.36681918	     -3.44492909	      0.00729581	      2.31831762	     -0.00243704	      0.83608579	      0.00378559	    -15.81044113	    396.22808436	    -33.82575225	     -3.44425918	      0.00806892	      2.68991482	      0.00470109	     -1.41492348	      0.00245698
     21.41500000	    -19.05367688	    449.84865365	     34.38882364	     -3.44489144	      0.00729600	      2.31830126	     -0.00239753	      0.82253305	      0.00372422	    -15.80165942	    395.82886423	    -34.00843205	     -3.44430255	      0.00806885	      2.68995253	      0.00465588	     -1.40131475	      0.00243335
     21.41600000	    -19.13114673	    449.06237051	     34.40929023	     -3.44485443	      0.00729618	      2.31828477	     -0.00235965	      0.80953650	      0.00366538	    -15.79885816	    395.44748745	    -34.19278593	     -3.44434876	      0.00806876	      2.68999148	      0.00461127	     -1.38788790	      0.00241004
     21.41700000	    -19.21994703	    448.28991010	     34.42882099	     -3.44481855	      0.00729636	      2.31826789	     -0.00232349	      0.79713094	      0.00360921	    -15.80075464	    395.08325551	    -34.37857906	     -3.44439817	      0.00806867	      2.69003174	      0.00456709	     -1.37459210	      0.00238695
     21.41800000	    -19.31981504	    447.53397604	     34.44802675	     -3.44478435	      0.00729654	      2.31825039	     -0.00228914	      0.78534661	      0.00355585	    -15.80594281	    394.73531837	    -34.56555804	     -3.44445112	      0.00806856	      2.69007340	      0.00452317	     -1.36137461	      0.00236400
     21.41900000	    -19.43029648	    446.79713566	     34.46752059	     -3.44475240	      0.00729672	      2.31823200	     -0.00225668	      0.77420876	      0.00350542	    -15.81290844	    394.40267066	    -34.75345458	     -3.44450792	      0.00806845	      2.69011652	      0.00447934	     -1.34818140	      0.00234109
     21.42000000	    -19.55074088	    446.08177948	     34.48791114	     -3.44472329	      0.00729689	      2.31821247	     -0.00222616	      0.76373733	      0.00345801	    -15.82004652	    394.08414934	    -34.94198936	     -3.44456885	      0.00806832	      2.69016116	      0.00443541	     -1.33495795	      0.00231813
     21.42100000	    -19.68029970	    445.39008192	     34.50979592	     -3.44469763	      0.00729706	      2.31819153	     -0.00219762	      0.75394663	      0.00341368	    -15.82568078	    393.77843323	    -35.13087607	     -3.44463419	      0.00806819	      2.69020739	      0.00439119	     -1.32164994	      0.00229502
     21.42200000	    -19.81792715	    444.72396374	     34.53375485	     -3.44467605	      0.00729723	      2.31816891	     -0.00217109	      0.74484515	      0.00337247	    -15.82808484	    393.48404470	    -35.31982560	     -3.44470413	      0.00806804	      2.69025525	      0.00434652	     -1.30820408	      0.00227167
     21.42300000	    -19.96238383	    444.08505703	     34.56034405	     -3.44465916	      0.00729739	      2.31814436	     -0.00214658	      0.73643548	      0.00333440	    -15.82550498	    393.19935379	    -35.50855015	     -3.44477886	      0.00806787	      2.69030479	      0.00430121	     -1.29456883	      0.00224799
     21.42400000	    -20.11224302	    443.47467321	     34.59008999	     -3.44464759	      0.00729754	      2.31811763	     -0.00212407	      0.72871422	      0.00329944	    -15.81618394	    392.92258502	    -35.69676746	     -3.44485852	      0.00806770	      2.69035604	      0.00425512	     -1.28069525	      0.00222390
     21.42500000	    -20.26589979	    442.89377460	     34.62348417	     -3.44464197	      0.00729769	      2.31808845	     -0.00210354	      0.72167208	      0.00326755	    -15.79838551	    392.65182707	    -35.88420489	     -3.44494319	      0.00806751	      2.69040902	      0.00420808	     -1.26653767	      0.00219931
     21.42600000	    -20.42158274	    442.34295025	     34.66097836	     -3.44464288	      0.00729783	      2.31805661	     -0.00208495	      0.71529401	      0.00323867	    -15.77041955	    392.38504546	    -36.07060331	     -3.44503292	      0.00806731	      2.69046374	      0.00415996	     -1.25205447	      0.00217417
     21.42700000	    -20.57736824	    441.82239622	     34.70298049	     -3.44465091	      0.00729796	      2.31802188	     -0.00206824	      0.70955942	      0.00321271	    -15.73066690	    392.12009823	    -36.25572098	     -3.44512770	      0.00806709	      2.69052021	      0.00411063	     -1.23720865	      0.00214839
     21.42800000	    -20.73119727	    441.33190088	     34.74985129	     -3.44466660	      0.00729809	      2.31798406	     -0.00205332	      0.70444254	      0.00318954	    -15.67760404	    391.85475466	    -36.43933702	     -3.44522748	      0.00806686	      2.69057841	      0.00406000	     -1.22196843	      0.00212192
     21.42900000	    -20.88089458	    440.87083548	     34.80190157	     -3.44469046	      0.00729821	      2.31794296	     -0.00204012	      0.69991278	      0.00316903	    -15.60982677	    391.58671696	    -36.62125477	     -3.44533215	      0.00806662	      2.69063833	      0.00400796	     -1.20630774	      0.00209473
     21.43000000	    -21.02419010	    440.43815020	     34.85939038	     -3.44472295	      0.00729831	      2.31789843	     -0.00202852	      0.69593524	      0.00315102	    -15.52607288	    391.31364468	    -36.80130480	     -3.44544155	      0.00806636	      2.69069994	      0.00395447	     -1.19020662	      0.00206677
